<svg width="21" height="21" viewBox="0 0 21 21" fill="none" xmlns="http://www.w3.org/2000/svg">
<path d="M10.1395 4.97715C7.28196 4.97715 4.97576 7.28339 4.97576 10.141C4.97576 12.9986 7.28196 15.3049 10.1395 15.3049C12.9971 15.3049 15.3033 12.9986 15.3033 10.141C15.3033 7.28339 12.9971 4.97715 10.1395 4.97715ZM10.1395 13.4971C8.29154 13.4971 6.78345 11.989 6.78345 10.141C6.78345 8.293 8.29154 6.78488 10.1395 6.78488C11.9875 6.78488 13.4956 8.293 13.4956 10.141C13.4956 11.989 11.9875 13.4971 10.1395 13.4971ZM15.5148 3.56219C14.8476 3.56219 14.3088 4.10098 14.3088 4.76818C14.3088 5.43538 14.8476 5.97417 15.5148 5.97417C16.182 5.97417 16.7207 5.43789 16.7207 4.76818C16.7209 4.60975 16.6899 4.45284 16.6293 4.30643C16.5688 4.16002 16.48 4.027 16.368 3.91497C16.2559 3.80294 16.1229 3.71412 15.9765 3.65358C15.8301 3.59305 15.6732 3.56199 15.5148 3.56219ZM20.2052 10.141C20.2052 8.75122 20.2178 7.37402 20.1397 5.98676C20.0617 4.37541 19.6941 2.94534 18.5158 1.76705C17.3351 0.586234 15.9075 0.221164 14.2962 0.143114C12.9065 0.0650645 11.5293 0.0776532 10.142 0.0776532C8.75228 0.0776532 7.37511 0.0650645 5.98787 0.143114C4.37655 0.221164 2.94651 0.588752 1.76824 1.76705C0.587445 2.94786 0.222382 4.37541 0.144334 5.98676C0.0662854 7.37654 0.0788739 8.75374 0.0788739 10.141C0.0788739 11.5283 0.0662854 12.908 0.144334 14.2953C0.222382 15.9066 0.589963 17.3367 1.76824 18.515C2.94903 19.6958 4.37655 20.0608 5.98787 20.1389C7.37763 20.2169 8.7548 20.2044 10.142 20.2044C11.5318 20.2044 12.909 20.2169 14.2962 20.1389C15.9075 20.0608 17.3376 19.6933 18.5158 18.515C19.6966 17.3342 20.0617 15.9066 20.1397 14.2953C20.2203 12.908 20.2052 11.5308 20.2052 10.141ZM17.9896 16.0778C17.8059 16.536 17.5843 16.8784 17.2293 17.2309C16.8743 17.5859 16.5344 17.8075 16.0762 17.9913C14.7519 18.5175 11.6073 18.3991 10.1395 18.3991C8.67171 18.3991 5.52462 18.5175 4.20032 17.9938C3.7421 17.81 3.39969 17.5884 3.04722 17.2334C2.69223 16.8784 2.47067 16.5386 2.28688 16.0803C1.7632 14.7535 1.88153 11.6088 1.88153 10.141C1.88153 8.67317 1.7632 5.52601 2.28688 4.20169C2.47067 3.74346 2.69223 3.40105 3.04722 3.04857C3.40221 2.69609 3.7421 2.47201 4.20032 2.28822C5.52462 1.76453 8.67171 1.88286 10.1395 1.88286C11.6073 1.88286 14.7544 1.76453 16.0787 2.28822C16.5369 2.47201 16.8794 2.69357 17.2318 3.04857C17.5868 3.40357 17.8084 3.74346 17.9922 4.20169C18.5158 5.52601 18.3975 8.67317 18.3975 10.141C18.3975 11.6088 18.5158 14.7535 17.9896 16.0778Z" fill="white"/>
</svg>
