<svg width="21" height="19" viewBox="0 0 21 19" fill="none" xmlns="http://www.w3.org/2000/svg">
<path d="M19.431 0.0787555C19.1825 0.0968408 18.9385 0.155158 18.7086 0.251433H18.7055C18.4848 0.338933 17.4356 0.780307 15.8404 1.44934L10.1242 3.85676C6.02257 5.58354 1.99059 7.28399 1.99059 7.28399L2.03859 7.2654C2.03859 7.2654 1.76061 7.35677 1.47023 7.55578C1.29084 7.66993 1.13647 7.81929 1.01647 7.99483C0.873988 8.2039 0.759386 8.5237 0.801975 8.85435C0.871665 9.41342 1.23406 9.74871 1.49423 9.93377C1.75751 10.1212 2.0084 10.2087 2.0084 10.2087H2.01459L5.79569 11.4825C5.96527 12.0268 6.94791 15.2574 7.18408 16.0015C7.32346 16.446 7.45897 16.724 7.62855 16.9361C7.71063 17.0445 7.80665 17.1351 7.92203 17.2079C7.98201 17.2428 8.04596 17.2704 8.11251 17.29L8.0738 17.2807C8.08541 17.2838 8.0947 17.2931 8.10322 17.2962C8.1342 17.3047 8.1551 17.3078 8.19459 17.314C8.79316 17.4952 9.27402 17.1235 9.27402 17.1235L9.30113 17.1018L11.5335 15.0692L15.2752 17.9397L15.3603 17.9761C16.1401 18.3183 16.9299 18.1278 17.3473 17.7918C17.7678 17.4534 17.9311 17.0205 17.9311 17.0205L17.9582 16.9508L20.8496 2.1385C20.9317 1.77301 20.9526 1.43075 20.862 1.09856C20.7686 0.762362 20.5529 0.47321 20.2573 0.287827C20.009 0.13692 19.7212 0.0640806 19.431 0.0787555ZM19.3528 1.66615C19.3497 1.71494 19.359 1.70951 19.3373 1.80321V1.81173L16.4731 16.47C16.4607 16.4909 16.4398 16.5366 16.3825 16.5823C16.3221 16.6303 16.2741 16.6605 16.0224 16.5606L11.446 13.052L8.68165 15.5717L9.26241 11.8627L16.7394 4.8936C17.0476 4.60709 16.9446 4.54669 16.9446 4.54669C16.9663 4.19514 16.4793 4.44371 16.4793 4.44371L7.05089 10.2846L7.0478 10.2691L2.52875 8.74749V8.74439L2.51714 8.74207C2.52506 8.73944 2.53282 8.73633 2.54037 8.73277L2.56515 8.72039L2.58915 8.71187C2.58915 8.71187 6.62423 7.01142 10.7259 5.28464C12.7795 4.4197 14.8485 3.54857 16.4398 2.87644C18.031 2.20819 19.2073 1.71803 19.2738 1.6917C19.3373 1.66693 19.3071 1.66693 19.3528 1.66693V1.66615Z" fill="white"/>
</svg>
