<svg width="21" height="21" viewBox="0 0 21 21" fill="none" xmlns="http://www.w3.org/2000/svg">
<path fill-rule="evenodd" clip-rule="evenodd" d="M17.8912 3.00239C16.9672 2.07229 15.8678 1.3348 14.6567 0.83263C13.4456 0.330462 12.1469 0.0736042 10.8359 0.0769363C5.33829 0.0769363 0.862896 4.55122 0.860674 10.051C0.860674 11.8087 1.31955 13.5242 2.19174 15.0375L0.777344 20.2051L6.06493 18.8174C7.52754 19.6136 9.16616 20.0311 10.8314 20.0318H10.8359C16.3323 20.0318 20.8077 15.5575 20.81 10.0577C20.8137 8.74717 20.5577 7.44889 20.0567 6.2379C19.5558 5.0269 18.8197 3.92721 17.8912 3.00239ZM10.8359 18.3485H10.8325C9.34762 18.3487 7.89002 17.9491 6.61269 17.1919L6.31048 17.0119L3.17281 17.8352L4.00945 14.7764L3.81279 14.4631C2.98259 13.1414 2.5431 11.6118 2.54506 10.051C2.54728 5.48008 6.26604 1.76132 10.8392 1.76132C11.9283 1.7589 13.0071 1.97252 14.0132 2.3898C15.0192 2.80708 15.9324 3.41975 16.7001 4.19235C17.4719 4.96125 18.0836 5.8755 18.4999 6.88225C18.9162 7.88899 19.1289 8.96827 19.1256 10.0577C19.1234 14.6286 15.4046 18.3485 10.8359 18.3485ZM15.3835 12.1387C15.1335 12.0132 13.9091 11.411 13.6802 11.3276C13.4524 11.2443 13.2869 11.2032 13.1202 11.4521C12.9536 11.701 12.4758 12.2621 12.3303 12.4287C12.1847 12.5954 12.0392 12.6154 11.7903 12.4909C11.5414 12.3665 10.7381 12.1032 9.78591 11.2543C9.04483 10.5932 8.54485 9.7777 8.3993 9.52771C8.25375 9.27772 8.38374 9.14328 8.50929 9.01884C8.62151 8.90773 8.75817 8.72774 8.88261 8.58219C9.00705 8.43664 9.04816 8.33331 9.13149 8.16665C9.21482 7.99999 9.17371 7.85444 9.11038 7.73C9.04816 7.60445 8.54929 6.37782 8.34152 5.87895C8.14042 5.39564 7.93487 5.46008 7.78154 5.45341C7.62274 5.44692 7.46382 5.44395 7.30489 5.44452C7.17851 5.44774 7.05416 5.47704 6.93964 5.53057C6.82511 5.58411 6.72288 5.66073 6.63936 5.75562C6.41048 6.00561 5.76717 6.60782 5.76717 7.83444C5.76717 9.06106 6.66047 10.2466 6.78491 10.4132C6.90935 10.5799 8.54262 13.0965 11.0425 14.1764C11.6381 14.4331 12.1025 14.5864 12.4636 14.702C13.0602 14.892 13.6036 14.8642 14.0335 14.8009C14.5124 14.7297 15.5079 14.1987 15.7157 13.6165C15.9235 13.0343 15.9235 12.5354 15.8613 12.4309C15.799 12.3265 15.6313 12.2632 15.3835 12.1387Z" fill="white"/>
</svg>
